<svg id="visual" viewBox="0 0 1600 900" width="1600" height="900" xmlns="http://www.w3.org/2000/svg" xmlns:xlink="http://www.w3.org/1999/xlink" version="1.1"><rect x="0" y="0" width="1600" height="900" fill="#001220"></rect><path d="M0 664L38.2 646.8C76.3 629.7 152.7 595.3 228.8 593.5C305 591.7 381 622.3 457.2 621.7C533.3 621 609.7 589 685.8 581C762 573 838 589 914.2 603.5C990.3 618 1066.7 631 1142.8 641C1219 651 1295 658 1371.2 660C1447.3 662 1523.7 659 1561.8 657.5L1600 656L1600 901L1561.8 901C1523.7 901 1447.3 901 1371.2 901C1295 901 1219 901 1142.8 901C1066.7 901 990.3 901 914.2 901C838 901 762 901 685.8 901C609.7 901 533.3 901 457.2 901C381 901 305 901 228.8 901C152.7 901 76.3 901 38.2 901L0 901Z" fill="#69fae8"></path><path d="M0 617L38.2 616.5C76.3 616 152.7 615 228.8 613.5C305 612 381 610 457.2 623.2C533.3 636.3 609.7 664.7 685.8 676.8C762 689 838 685 914.2 672.5C990.3 660 1066.7 639 1142.8 636.7C1219 634.3 1295 650.7 1371.2 660.3C1447.3 670 1523.7 673 1561.8 674.5L1600 676L1600 901L1561.8 901C1523.7 901 1447.3 901 1371.2 901C1295 901 1219 901 1142.8 901C1066.7 901 990.3 901 914.2 901C838 901 762 901 685.8 901C609.7 901 533.3 901 457.2 901C381 901 305 901 228.8 901C152.7 901 76.3 901 38.2 901L0 901Z" fill="#00dffa"></path><path d="M0 688L38.2 684.5C76.3 681 152.7 674 228.8 679C305 684 381 701 457.2 713C533.3 725 609.7 732 685.8 725C762 718 838 697 914.2 700.2C990.3 703.3 1066.7 730.7 1142.8 736.3C1219 742 1295 726 1371.2 717.3C1447.3 708.7 1523.7 707.3 1561.8 706.7L1600 706L1600 901L1561.8 901C1523.7 901 1447.3 901 1371.2 901C1295 901 1219 901 1142.8 901C1066.7 901 990.3 901 914.2 901C838 901 762 901 685.8 901C609.7 901 533.3 901 457.2 901C381 901 305 901 228.8 901C152.7 901 76.3 901 38.2 901L0 901Z" fill="#00bfff"></path><path d="M0 732L38.2 734.7C76.3 737.3 152.7 742.7 228.8 747.7C305 752.7 381 757.3 457.2 762.7C533.3 768 609.7 774 685.8 768C762 762 838 744 914.2 748.8C990.3 753.7 1066.7 781.3 1142.8 782.8C1219 784.3 1295 759.7 1371.2 751.5C1447.3 743.3 1523.7 751.7 1561.8 755.8L1600 760L1600 901L1561.8 901C1523.7 901 1447.3 901 1371.2 901C1295 901 1219 901 1142.8 901C1066.7 901 990.3 901 914.2 901C838 901 762 901 685.8 901C609.7 901 533.3 901 457.2 901C381 901 305 901 228.8 901C152.7 901 76.3 901 38.2 901L0 901Z" fill="#0098ff"></path><path d="M0 796L38.2 794.8C76.3 793.7 152.7 791.3 228.8 790.7C305 790 381 791 457.2 798C533.3 805 609.7 818 685.8 824.8C762 831.7 838 832.3 914.2 832C990.3 831.7 1066.7 830.3 1142.8 830.3C1219 830.3 1295 831.7 1371.2 836.8C1447.3 842 1523.7 851 1561.8 855.5L1600 860L1600 901L1561.8 901C1523.7 901 1447.3 901 1371.2 901C1295 901 1219 901 1142.8 901C1066.7 901 990.3 901 914.2 901C838 901 762 901 685.8 901C609.7 901 533.3 901 457.2 901C381 901 305 901 228.8 901C152.7 901 76.3 901 38.2 901L0 901Z" fill="#0066ff"></path></svg>