<svg id="visual" viewBox="0 0 1920 1080" width="1920" height="1080" xmlns="http://www.w3.org/2000/svg" xmlns:xlink="http://www.w3.org/1999/xlink" version="1.1"><rect x="0" y="0" width="1920" height="1080" fill="#001220"></rect><defs><linearGradient id="grad1_0" x1="43.8%" y1="0%" x2="100%" y2="100%"><stop offset="14.444444444444446%" stop-color="#001220" stop-opacity="1"></stop><stop offset="85.55555555555554%" stop-color="#001220" stop-opacity="1"></stop></linearGradient></defs><defs><linearGradient id="grad2_0" x1="0%" y1="0%" x2="56.3%" y2="100%"><stop offset="14.444444444444446%" stop-color="#001220" stop-opacity="1"></stop><stop offset="85.55555555555554%" stop-color="#001220" stop-opacity="1"></stop></linearGradient></defs><g transform="translate(1920, 0)"><path d="M0 702C-64.1 673.5 -128.3 645 -205.2 631.5C-282.1 618 -371.9 619.6 -412.6 567.9C-453.4 516.2 -445.2 411.3 -474.9 345C-504.6 278.8 -572.1 251.3 -616.3 200.2C-660.4 149.2 -681.2 74.6 -702 0L0 0Z" fill="#3cfafa"></path></g><g transform="translate(0, 1080)"><path d="M0 -702C61.1 -642.1 122.3 -582.2 177.1 -545C231.9 -507.7 280.4 -493.1 348 -478.9C415.6 -464.8 502.3 -451.1 560.6 -407.3C619 -363.6 648.8 -289.8 667.6 -216.9C686.5 -144 694.2 -72 702 0L0 0Z" fill="#3cfafa"></path></g></svg>